<?xml version="1.0" standalone="no"?>
<!DOCTYPE svg PUBLIC "-//W3C//DTD SVG 20010904//EN"
 "http://www.w3.org/TR/2001/REC-SVG-20010904/DTD/svg10.dtd">
<svg version="1.0" xmlns="http://www.w3.org/2000/svg"
 width="512.000000pt" height="512.000000pt" viewBox="0 0 512.000000 512.000000"
 preserveAspectRatio="xMidYMid meet">
<metadata>
Created by potrace 1.14, written by Peter Selinger 2001-2017
</metadata>
<g transform="translate(0.000000,512.000000) scale(0.100000,-0.100000)"
fill="#000000" stroke="none">
<path d="M1535 4785 c-258 -56 -461 -238 -539 -485 -33 -103 -35 -129 -35
-432 l-1 -268 -280 0 -280 0 -1 -22 c-1 -13 -2 -41 -4 -63 -1 -22 -5 -110 -9
-195 -4 -85 -9 -184 -11 -220 -2 -36 -7 -123 -10 -195 -3 -71 -8 -159 -10
-195 -7 -134 -16 -328 -20 -420 -3 -52 -7 -147 -11 -210 -3 -63 -7 -142 -9
-175 -2 -33 -6 -123 -9 -200 -4 -77 -9 -169 -11 -205 -2 -36 -6 -121 -10 -190
-7 -165 -14 -293 -20 -415 -3 -55 -8 -145 -10 -200 -3 -55 -7 -144 -10 -197
l-5 -98 2321 0 2321 0 -7 83 c-10 112 -12 138 -20 242 -3 50 -8 110 -10 135
-3 25 -7 86 -10 135 -3 50 -8 106 -10 125 -2 19 -7 76 -11 125 -3 50 -8 110
-10 135 -2 25 -6 83 -9 130 -3 47 -7 103 -10 125 -2 22 -7 81 -10 130 -3 50
-8 110 -10 135 -2 25 -7 81 -10 125 -3 44 -8 103 -10 130 -7 86 -18 218 -20
260 -2 22 -3 46 -4 52 -1 10 -134 13 -613 15 l-613 3 -1 35 c-2 50 -14 281
-19 370 -2 41 -6 125 -9 185 -8 149 -18 369 -21 430 -2 28 -3 60 -4 73 l-1 22
-280 0 -280 0 -1 268 c-1 304 -2 321 -30 417 -67 228 -236 399 -474 481 -71
24 -95 27 -210 28 -97 0 -145 -4 -188 -17 -54 -17 -61 -17 -110 -1 -68 21
-252 26 -332 9z m155 -153 c0 -4 -14 -20 -30 -35 -84 -79 -155 -197 -189 -312
-28 -94 -30 -118 -30 -422 l-1 -263 -160 0 -161 0 1 273 c1 151 6 294 12 322
52 244 272 431 521 443 20 1 37 -2 37 -6z m639 -19 c145 -48 263 -150 329
-285 22 -45 46 -110 51 -142 6 -33 11 -178 11 -323 l0 -263 -160 0 -160 0 -1
268 c-1 304 -2 322 -30 417 -35 117 -90 210 -181 303 l-53 55 74 -7 c40 -4 94
-14 120 -23z m-348 -61 c119 -76 224 -230 248 -366 6 -33 11 -178 11 -323 l0
-263 -320 0 -320 0 0 264 c0 145 4 285 9 312 30 156 122 293 251 375 56 36 66
36 121 1z"/>
</g>
</svg>
